# xmcd
#
# Track frame offsets: 
#        150
#        18512
#        34137
#        52688
#        66177
#        85807
#        99095
#        114594
#        135318
#        151158
#        170509
#        181899
#        203411
#
# Disc length: 2913 seconds
#
# Revision: 0
# Processed by: cddbd v1.5.2PL0 Copyright (c) Steve Scherf et al.
# Submitted via: ExactAudioCopy v0.99pb5
#
DISCID=930b5f0d
DTITLE=Viorica si Ionita de la Clejani - Cine numele mi-l poarta
DYEAR=2010
DGENRE=Lautareasca
TTITLE0=Cine numele mi-l poarta
TTITLE1=Alo, Hawaii
TTITLE2=Cuculetu'
TTITLE3=Hora la zece
TTITLE4=Capitane de judet
TTITLE5=Pe drumul de la Cepari
TTITLE6=Pale la misto
TTITLE7=Pui de corb
TTITLE8=Cala Cartojani
TTITLE9=Cucu' si corbu'
TTITLE10=Lautareasca
TTITLE11=Bordeias
TTITLE12=Dragostea de la Clejani (remix)
EXTD=
EXTT0=
EXTT1=
EXTT2=
EXTT3=
EXTT4=
EXTT5=
EXTT6=
EXTT7=
EXTT8=
EXTT9=
EXTT10=
EXTT11=
EXTT12=
PLAYORDER=
